<svg aria-hidden="true" style="position: absolute; width: 0; height: 0; overflow: hidden;" version="1.1" xmlns="http://www.w3.org/2000/svg" xmlns:xlink="http://www.w3.org/1999/xlink">
    <defs>
        <symbol id="icon-ice-cream-heart" viewBox="0 0 32 32">
            <path fill="#d81b60" style="fill: var(--color1, #d81b60)" d="M26.054 5.467c0-0.293-0.24-0.533-0.533-0.533h-0.021c-0.027 0.123-0.101 0.229-0.203 0.299-0.085 0.064-0.192 0.101-0.309 0.101-0.368 0-0.565 0.091-0.672 0.453-0.075 0.251-0.107 0.635-0.123 1.2-0.032 1.125-0.080 2.827-1.952 3.013h-0.107c-0.464-0.043-0.816-0.187-1.083-0.384-0.811-0.613-0.843-1.781-0.869-2.629-0.011-0.416-0.032-0.731-0.075-0.971-0.085-0.544-0.277-0.677-0.699-0.683h-0.021c-0.293 0-0.533-0.24-0.533-0.533s0.24-0.533 0.533-0.533c0.896 0 1.349 0.411 1.589 0.955 0.229 0.539 0.251 1.205 0.267 1.733 0.037 1.131 0.112 1.701 0.651 1.904 0.085 0.032 0.181 0.053 0.293 0.069 0.805-0.101 0.901-0.661 0.944-1.973 0.027-0.811 0.059-1.931 0.837-2.427 0.251-0.165 0.587-0.261 1.019-0.261 0.011 0 0.021 0 0.032 0.005-0.469-1.333-1.253-2.427-2.261-3.179-0.619-0.064-1.253 0.005-1.899 0.197-1.2 0.363-2.421 1.157-3.595 2.352v0.005c-0.288 0.293-0.576 0.608-0.853 0.949-0.203 0.251-0.619 0.251-0.821 0-0.224-0.272-0.448-0.528-0.677-0.768-0.021-0.016-0.043-0.027-0.064-0.043-0.309-0.197-0.619-0.379-0.923-0.533-2.389-1.264-4.693-1.451-6.549-0.496-0.053 0.027-0.112 0.059-0.165 0.085-0.565 0.315-1.051 0.72-1.472 1.2-0.277 0.315-0.517 0.667-0.725 1.045-0.005 0-0.005 0 0 0.005-0.123 0.432-0.208 0.885-0.256 1.355-0.096 0.933-0.107 3.035 1.115 5.536 1.003 2.064 2.853 4.4 6.187 6.581 0.603 0.395 1.253 0.784 1.957 1.168h3.269c8.288-5.205 8.384-11.493 8.192-13.386-0.012-0.132-0.029-0.249-0.052-0.364l0.004 0.022c0.027-0.005 0.059-0.005 0.091-0.005 0.001 0 0.001 0 0.002 0 0.294 0 0.531-0.238 0.531-0.531 0-0.001 0-0.001 0-0.002v0zM14.054 9.734c-0.624 0-0.752 0.261-0.795 1.653-0.032 1.125-0.080 2.827-1.952 3.013h-0.107c-1.872-0.187-1.92-1.888-1.952-3.013-0.043-1.392-0.171-1.653-0.795-1.653-0.293 0-0.533-0.24-0.533-0.533s0.24-0.533 0.533-0.533c1.776 0 1.824 1.616 1.856 2.688 0.043 1.312 0.139 1.872 0.944 1.973 0.805-0.101 0.901-0.661 0.944-1.973 0.032-1.072 0.080-2.688 1.856-2.688 0.293 0 0.533 0.24 0.533 0.533s-0.24 0.533-0.533 0.533z"></path>
            <path fill="#ad1457" style="fill: var(--color2, #ad1457)" d="M26.054 5.467c0 0.001 0 0.001 0 0.002 0 0.293-0.238 0.531-0.531 0.531-0.001 0-0.001 0-0.002 0h0c-0.032 0-0.064 0-0.091 0.005-0.544 0.027-0.661 0.331-0.704 1.653-0.021 0.784-0.053 1.845-0.704 2.475-0.283 0.277-0.683 0.475-1.248 0.533h-0.107c-0.88-0.091-1.355-0.512-1.616-1.051-0.299-0.603-0.32-1.36-0.336-1.957-0.037-1.237-0.144-1.584-0.608-1.643-0.053-0.011-0.117-0.016-0.187-0.016-0.001 0-0.001 0-0.002 0-0.294 0-0.532-0.238-0.532-0.532 0-0.001 0-0.001 0-0.002v0c0-0.048 0.005-0.091 0.021-0.133 0.053-0.229 0.267-0.4 0.512-0.4 0.459 0 0.8 0.107 1.056 0.288 0.741 0.512 0.779 1.611 0.8 2.405 0.016 0.528 0.043 0.933 0.117 1.232 0.117 0.453 0.341 0.683 0.827 0.741 0.805-0.101 0.901-0.661 0.944-1.973 0.021-0.704 0.048-1.643 0.576-2.208 0.219-0.245 0.539-0.416 0.987-0.469 0.079-0.010 0.171-0.016 0.264-0.016 0.003 0 0.005 0 0.008 0h0.021c0.294-0 0.534 0.24 0.534 0.533zM14.587 9.203c-1.779 0-1.827 1.619-1.858 2.689-0.039 1.313-0.136 1.873-0.942 1.974-0.805-0.101-0.902-0.661-0.942-1.974-0.032-1.071-0.079-2.689-1.858-2.689-0.294 0-0.533 0.239-0.533 0.533s0.239 0.533 0.533 0.533c0.625 0 0.751 0.263 0.792 1.654 0.034 1.125 0.084 2.826 1.956 3.010h0.105c1.871-0.184 1.922-1.885 1.956-3.010 0.042-1.391 0.167-1.654 0.792-1.654 0.294-0 0.533-0.239 0.533-0.533v0c0-0.294-0.239-0.533-0.533-0.533z"></path>
            <path fill="#000" style="fill: var(--color3, #000)" d="M14.587 9.2c0 0.293-0.24 0.533-0.533 0.533-0.624 0-0.752 0.261-0.795 1.653-0.032 1.125-0.080 2.827-1.952 3.013h-0.107c-1.872-0.187-1.92-1.888-1.952-3.013-0.043-1.392-0.171-1.653-0.795-1.653-0.293 0-0.533-0.24-0.533-0.533s0.24-0.533 0.533-0.533c1.776 0 1.824 1.616 1.856 2.688 0.043 1.312 0.139 1.872 0.944 1.973 0.805-0.101 0.901-0.661 0.944-1.973 0.032-1.072 0.080-2.688 1.856-2.688 0.293 0 0.533 0.24 0.533 0.533z"></path>
            <path fill="#000" style="fill: var(--color3, #000)" d="M28.305 6.347c-0.304-3.040-2-5.381-4.427-6.117-0.288-0.091-0.581-0.149-0.88-0.181-0.693-0.096-1.403-0.048-2.117 0.133-0.427 0.101-0.848 0.256-1.269 0.453-0.32 0.144-0.635 0.315-0.949 0.507-0.752 0.464-1.493 1.072-2.213 1.813-0.147 0.151-0.293 0.309-0.435 0.471l-0.013 0.015c-0.133-0.144-0.261-0.288-0.4-0.427-0.069-0.080-0.149-0.16-0.224-0.235-0.17-0.171-0.346-0.336-0.526-0.496l-0.012-0.011c-0.080-0.075-0.165-0.144-0.251-0.213-1.312-1.109-2.683-1.787-4.027-1.989-0.768-0.117-1.531-0.085-2.267 0.112l-0.176 0.048c-0.309 0.091-0.603 0.213-0.891 0.357h-0.005c-0.277 0.144-0.544 0.315-0.8 0.501-1.499 1.115-2.501 2.992-2.725 5.253-0.107 1.035-0.123 3.365 1.221 6.117 0.304 0.624 0.677 1.269 1.141 1.925 1.184 1.701 2.944 3.477 5.531 5.152 0.011 0 0.016 0.005 0.021 0.011 0.091 0.069 0.187 0.128 0.283 0.187 0.288 0.181 0.587 0.357 0.896 0.533 0.176 0.107 0.357 0.208 0.544 0.309 0 0.075 0 0.149-0.005 0.224-0.053 2.187-0.411 3.627-0.699 4.805-0.192 0.784-0.363 1.467-0.363 2.128 0 0.768 0.181 1.493 0.496 2.117 0.197 0.395 0.448 0.752 0.741 1.056 0.213 0.213 0.448 0.405 0.699 0.56 0.123 0.080 0.251 0.149 0.384 0.213 0.437 0.208 0.912 0.32 1.413 0.32 0.875 0 1.68-0.347 2.315-0.923 0.264-0.238 0.491-0.508 0.679-0.806l0.009-0.016c0.459-0.709 0.731-1.579 0.731-2.523 0-0.688-0.171-1.376-0.368-2.176-0.261-1.051-0.576-2.32-0.672-4.165-0.016-0.256-0.021-0.528-0.027-0.811 0.511-0.279 0.767-0.428 1.022-0.578l-0.238 0.13c2.101-1.237 3.717-2.555 4.955-3.861 4.021-4.251 4.048-8.437 3.899-9.925zM18.363 29.211c-0.165 0.389-0.405 0.736-0.688 1.013-0.448 0.432-1.008 0.693-1.621 0.709 0 0-0.005-0.005-0.005 0h-0.048c-0.112 0-0.224-0.011-0.331-0.027-0.395-0.059-0.763-0.219-1.083-0.464-0.026-0.019-0.048-0.038-0.069-0.059l0 0c-0.715-0.571-1.184-1.547-1.184-2.651 0-0.533 0.144-1.125 0.331-1.872 0.288-1.163 0.667-2.72 0.725-5.019v-0.043h3.221c0.037 1.696 0.256 2.992 0.485 4.021 0.080 0.363 0.16 0.693 0.235 0.997 0.187 0.757 0.336 1.36 0.336 1.915 0 0.533-0.107 1.035-0.304 1.477zM17.995 19.733h-3.979c-0.444-0.238-0.75-0.414-1.053-0.598l0.114 0.064c-0.454-0.267-0.787-0.477-1.114-0.694l0.095 0.059c-3.333-2.181-5.184-4.517-6.187-6.581-1.221-2.501-1.211-4.603-1.115-5.536 0.048-0.469 0.133-0.923 0.256-1.355-0.005-0.005-0.005-0.005 0-0.005 0.539-1.861 1.749-3.28 3.301-3.797 0.037-0.016 0.075-0.027 0.112-0.037 0.411-0.128 0.827-0.187 1.259-0.187 0.197 0 0.395 0.016 0.592 0.043 0.086 0.007 0.165 0.018 0.241 0.034l-0.012-0.002c1.083 0.187 2.203 0.747 3.291 1.643 0.267 0.219 0.528 0.459 0.789 0.715 0.096 0.096 0.197 0.192 0.293 0.299l0.032 0.032c0.229 0.24 0.453 0.496 0.677 0.768 0.203 0.251 0.619 0.251 0.821 0 0.277-0.341 0.565-0.656 0.853-0.949v-0.005c1.173-1.195 2.395-1.989 3.595-2.352 0.613-0.181 1.216-0.256 1.808-0.203 0.032 0 0.059 0 0.091 0.005 0.303 0.030 0.58 0.086 0.846 0.168l-0.030-0.008c0.715 0.213 1.355 0.619 1.899 1.173 0.96 0.965 1.605 2.389 1.771 4.027 0.187 1.84 0.053 8.229-9.248 13.28z"></path>
            <path fill="#8d6e63" style="fill: var(--color4, #8d6e63)" d="M18.667 27.733c0 0.533-0.107 1.035-0.304 1.477-0.165 0.389-0.405 0.736-0.688 1.013-0.448 0.432-1.008 0.693-1.621 0.709 0.176-0.117 0.347-0.245 0.501-0.389 0.264-0.238 0.491-0.508 0.679-0.806l0.009-0.016c0.459-0.709 0.731-1.579 0.731-2.523 0-0.688-0.171-1.376-0.368-2.176-0.261-1.051-0.576-2.32-0.672-4.165v-0.059h0.677c0.037 1.696 0.256 2.992 0.485 4.021 0.080 0.363 0.16 0.693 0.235 0.997 0.187 0.757 0.336 1.36 0.336 1.915z"></path>
            <path fill="#c1ad9d" style="fill: var(--color5, #c1ad9d)" d="M17.974 27.2c0 0.944-0.272 1.813-0.731 2.523-0.197 0.314-0.424 0.584-0.685 0.818l-0.003 0.003c-0.155 0.144-0.325 0.272-0.501 0.389 0 0-0.005-0.005-0.005 0h-0.048c-0.112 0-0.224-0.011-0.331-0.027-0.395-0.059-0.763-0.219-1.083-0.464-0.026-0.019-0.048-0.038-0.069-0.059l0 0c-0.715-0.571-1.184-1.547-1.184-2.651 0-0.533 0.144-1.125 0.331-1.872 0.288-1.163 0.667-2.72 0.725-5.019v-0.043h2.544v0.059c0.096 1.845 0.411 3.115 0.672 4.165 0.197 0.8 0.368 1.488 0.368 2.176z"></path>
            <path fill="#ad1457" style="fill: var(--color2, #ad1457)" d="M14.913 3.83c-0.021-0.016-0.043-0.027-0.064-0.043-0.309-0.197-0.619-0.379-0.923-0.533-2.389-1.264-4.693-1.451-6.549-0.496-0.053 0.027-0.112 0.059-0.165 0.085-0.565 0.315-1.051 0.72-1.472 1.2-0.277 0.315-0.517 0.667-0.725 1.045 0.539-1.861 1.749-3.28 3.301-3.797 0.037-0.016 0.075-0.027 0.112-0.037 0.411-0.128 0.827-0.187 1.259-0.187 0.272 0 0.544 0.027 0.821 0.075 1.083 0.187 2.203 0.747 3.291 1.643 0.267 0.219 0.528 0.459 0.789 0.715 0.107 0.107 0.219 0.213 0.325 0.331zM17.995 19.733h-0.709c8.288-5.205 8.384-11.493 8.192-13.386-0.012-0.132-0.029-0.249-0.052-0.364l0.004 0.022c0.027-0.005 0.059-0.005 0.091-0.005 0.001 0 0.001 0 0.002 0 0.294 0 0.532-0.238 0.532-0.532 0-0.001 0-0.001 0-0.002v0c0-0.293-0.24-0.533-0.533-0.533h-0.021c0.016-0.043 0.021-0.085 0.021-0.133 0-0.283-0.224-0.517-0.501-0.528-0.469-1.333-1.253-2.427-2.261-3.179 0.303 0.030 0.58 0.086 0.846 0.168l-0.030-0.008c1.973 0.597 3.413 2.635 3.669 5.2 0.187 1.84 0.053 8.229-9.248 13.28z"></path>
            <path fill="#000" style="fill: var(--color3, #000)" d="M25.52 4.8c0 0.048-0.005 0.091-0.021 0.133-0.027 0.123-0.101 0.229-0.203 0.299-0.085 0.064-0.192 0.101-0.309 0.101-0.368 0-0.565 0.091-0.672 0.453-0.075 0.251-0.107 0.635-0.123 1.2-0.032 1.125-0.080 2.827-1.952 3.013h-0.107c-0.464-0.043-0.816-0.187-1.083-0.384-0.811-0.613-0.843-1.781-0.869-2.629-0.011-0.416-0.032-0.731-0.075-0.971-0.085-0.544-0.277-0.677-0.699-0.683h-0.021c-0.293 0-0.533-0.24-0.533-0.533s0.24-0.533 0.533-0.533c0.896 0 1.349 0.411 1.589 0.955 0.229 0.539 0.251 1.205 0.267 1.733 0.037 1.131 0.112 1.701 0.651 1.904 0.085 0.032 0.181 0.053 0.293 0.069 0.805-0.101 0.901-0.661 0.944-1.973 0.027-0.811 0.059-1.931 0.837-2.427 0.251-0.165 0.587-0.261 1.019-0.261 0.011 0 0.021 0 0.032 0.005 0.277 0.011 0.501 0.245 0.501 0.528z"></path>
        </symbol>
        <symbol id="icon-apples" viewBox="0 0 32 32">
            <path d="M29.626 21.411c-1.292-0.458-2.382-0.344-3.242 0.018 0.145-0.877 0.47-1.832 1.17-2.481 0.431-0.4 0.456-1.074 0.056-1.505s-1.074-0.456-1.505-0.056c-1.229 1.14-1.706 2.748-1.874 4.081-0.307-0.142-0.662-0.25-1.035-0.308l-0.023-0.003 1.89-9.83c0.012-0.061 0.019-0.13 0.019-0.201 0-0.588-0.477-1.065-1.065-1.065-0 0-0 0-0 0h-0.204c0.094-0.5 0.141-0.997 0.137-1.47-0.016-1.994-0.903-3.495-2.374-4.017-1.41-0.5-2.59-0.35-3.507 0.066 0.145-0.976 0.494-2.063 1.282-2.794 0.431-0.4 0.456-1.074 0.056-1.505s-1.074-0.456-1.505-0.056c-1.32 1.225-1.815 2.965-1.982 4.386-0.735-0.348-1.644-0.527-2.708-0.33-1.094-1.571-2.613-2.296-4.089-1.942-1.451 0.349-2.358 1.115-2.901 1.962-0.41-0.899-0.712-2.001-0.452-3.036 0.143-0.57-0.203-1.149-0.773-1.292s-1.149 0.203-1.292 0.773c-0.439 1.746 0.095 3.476 0.729 4.758-1.016 0.137-2.117 0.65-3.049 1.866-0.578 0.755-0.773 1.698-0.596 2.7-0.18 0.068-0.331 0.177-0.447 0.317l-0.001 0.002c-0.152 0.183-0.244 0.42-0.244 0.678 0 0.071 0.007 0.141 0.020 0.208l-0.001-0.007 3.809 19.809c0.098 0.495 0.529 0.864 1.046 0.864h15.237c0.517 0 0.948-0.368 1.045-0.857l0.001-0.007 0.038-0.195c0.287 0.198 0.596 0.363 0.927 0.487 1.266 0.471 2.447 0.278 3.044 0.118 0.409 0.113 0.879 0.178 1.364 0.179h0c0.506 0 1.084-0.075 1.68-0.297 2.36-0.879 3.614-3.839 3.596-6.178-0.015-1.904-0.866-3.339-2.276-3.839zM22.674 12.191c-0.49 4.705-4.452 7.91-9.971 7.91s-9.481-3.204-9.971-7.91h19.942zM16.032 7.515c0.184 0.349 0.536 0.567 0.93 0.567s0.746-0.218 0.93-0.567c0.029-0.048 0.29-0.466 0.769-0.777 0.629-0.408 1.35-0.46 2.203-0.157 0.851 0.302 0.952 1.518 0.956 2.027 0.004 0.463-0.064 0.962-0.191 1.453h-7.126c0.236-1.19 0.094-2.492-0.289-3.669 0.377 0.022 0.724 0.137 1.047 0.346 0.479 0.311 0.74 0.729 0.769 0.777zM3.078 8.724c0.55-0.719 1.182-1.068 1.932-1.069h0.002c0.57 0 1.016 0.208 1.066 0.232 0.341 0.19 0.749 0.172 1.079-0.037 0.331-0.211 0.51-0.591 0.481-0.983-0.006-0.077-0.115-1.893 1.983-2.397 0.876-0.211 1.625 0.754 1.906 1.178 0.807 1.22 1.221 3.108 0.777 4.413h-9.349c-0.141-0.443-0.179-0.943 0.122-1.336zM5.852 29.87l-2.111-10.978c0.132 0.127 0.272 0.254 0.414 0.378l0.013 0.011c2.208 1.901 5.239 2.948 8.535 2.948s6.328-1.047 8.535-2.948c0.052-0.044 0.102-0.090 0.152-0.135l-0.431 2.243c-0.020 0.007-0.041 0.013-0.061 0.021-1.41 0.5-2.261 1.935-2.276 3.839-0.009 1.164 0.297 2.483 0.898 3.622l-0.192 0.999h-13.477zM27.562 29.432c-0.943 0.351-1.881 0.017-1.916 0.005-0.25-0.097-0.518-0.099-0.768-0-0.009 0.004-0.96 0.352-1.917-0.005-1.338-0.498-2.223-2.556-2.21-4.165 0.004-0.466 0.095-1.578 0.858-1.849 0.349-0.124 0.661-0.175 0.939-0.175 1.107 0 1.657 0.812 1.782 1.024 0.184 0.35 0.535 0.569 0.931 0.569s0.747-0.219 0.931-0.569c0.156-0.265 0.977-1.468 2.721-0.849 0.763 0.271 0.854 1.383 0.858 1.849 0.013 1.609-0.872 3.667-2.21 4.166z"></path>
        </symbol>
        <symbol id="icon-dairy-icon" viewBox="0 0 32 32">
            <path fill="#d3cbc9" style="fill: var(--color6, #d3cbc9)" d="M16 0c-8.84 0-16 7.16-16 16s7.16 16 16 16 16-7.16 16-16-7.16-16-16-16z"></path>
            <path fill="#fff" style="fill: var(--color7, #fff)" d="M22.62 14.1c-0.12-0.14-0.3-0.24-0.5-0.24h-12.040c-0.2 0-0.38 0.080-0.5 0.24-0.12 0.14-0.18 0.34-0.14 0.54l2 10.44c0.060 0.3 0.32 0.52 0.64 0.52h8.040c0.3 0 0.58-0.22 0.64-0.52l2-10.44c0.040-0.2-0.020-0.38-0.14-0.54zM21.26 15.16c-0.3 2.38-2.34 4-5.16 4s-4.86-1.62-5.16-4h10.32zM19.58 24.32h-6.96l-1.040-5.42c1.14 0.98 2.72 1.56 4.52 1.56s3.38-0.58 4.52-1.56l-1.040 5.42zM10.86 9.48c0.32 0.32 0.76 0.5 1.2 0.5 0.46 0 0.88-0.18 1.2-0.5l0.18-0.18c0.3 0.16 0.62 0.3 0.94 0.4v0.7c0 0.94 0.76 1.7 1.7 1.7s1.7-0.76 1.7-1.7v-0.68c0.32-0.1 0.64-0.24 0.94-0.4l0.18 0.18c0.32 0.32 0.76 0.5 1.2 0.5 0.46 0 0.88-0.18 1.2-0.5 0.66-0.66 0.66-1.74 0-2.42l-0.22-0.22c0.32-0.46 0.5-0.78 0.5-1.62 0-0.36-0.28-0.64-0.64-0.64h-9.72c-0.36 0-0.64 0.28-0.64 0.64 0 0.84 0.2 1.16 0.5 1.62l-0.22 0.22c-0.66 0.66-0.66 1.74 0 2.4zM11.76 7.98l0.58-0.58c0.2-0.2 0.24-0.54 0.1-0.78-0.12-0.2-0.22-0.36-0.32-0.48-0.060-0.1-0.12-0.18-0.16-0.24h8.24c-0.040 0.080-0.1 0.14-0.16 0.24-0.080 0.12-0.2 0.28-0.32 0.48-0.16 0.26-0.1 0.58 0.1 0.78l0.58 0.58c0.080 0.080 0.12 0.18 0.12 0.3s-0.040 0.22-0.12 0.3c-0.080 0.080-0.18 0.12-0.3 0.12s-0.22-0.040-0.3-0.12l-0.54-0.54c-0.22-0.22-0.56-0.26-0.82-0.080-0.44 0.3-0.94 0.52-1.46 0.64-0.3 0.060-0.5 0.32-0.5 0.62v1.18c0 0.24-0.18 0.42-0.42 0.42s-0.42-0.18-0.42-0.42v-1.18c0-0.3-0.2-0.56-0.5-0.62-0.52-0.12-1.020-0.32-1.46-0.64-0.12-0.080-0.24-0.12-0.36-0.12-0.16 0-0.34 0.060-0.46 0.18l-0.54 0.54c-0.080 0.080-0.18 0.12-0.3 0.12s-0.22-0.040-0.3-0.12c-0.080-0.080-0.12-0.18-0.12-0.3s0.1-0.2 0.16-0.28z"></path>
        </symbol>
        <symbol id="icon-untitled" viewBox="0 0 32 32">
            <path fill="#e1e1e1" style="fill: var(--color8, #e1e1e1)" d="M23.714 4.148c1.428 0 2.777 0.385 4.047 1.156s2.302 1.879 3.095 3.324c0.762 1.445 1.143 3.148 1.143 5.107s-0.476 3.87-1.428 5.733c-0.318 0.674-0.889 1.541-1.715 2.601-0.857 1.060-1.65 1.975-2.38 2.746l-3 3.035-2.143-3.565c1.528-0.964 2.832-2.115 3.931-3.442l0.022-0.027c1.143-1.349 1.714-2.585 1.714-3.71 0-0.578-0.127-1.044-0.38-1.397-1.111 0.803-2.35 1.205-3.714 1.205-0.984 0-1.921-0.305-2.809-0.916-0.917-0.579-1.657-1.359-2.174-2.28l-0.016-0.032c-0.571-0.932-0.857-1.895-0.857-2.891 0-1.125 0.333-2.2 1-3.228 0.641-1.029 1.489-1.871 2.491-2.486l0.033-0.019c1.015-0.61 2.062-0.916 3.142-0.916zM6.619 4.148c1.428 0 2.777 0.385 4.047 1.156s2.302 1.879 3.095 3.324c0.762 1.445 1.143 3.148 1.143 5.107 0 1.381-0.175 2.617-0.524 3.71-0.35 1.124-0.952 2.296-1.81 3.517-0.825 1.156-1.603 2.12-2.333 2.891-0.73 0.803-2 2.136-3.81 3.999l-2.143-3.565c1.528-0.964 2.832-2.115 3.931-3.442l0.022-0.027c1.143-1.349 1.714-2.585 1.714-3.71 0-0.578-0.127-1.044-0.381-1.397-1.111 0.803-2.35 1.205-3.714 1.205-0.984 0-1.921-0.305-2.809-0.916-0.917-0.579-1.657-1.359-2.174-2.28l-0.016-0.032c-0.571-0.932-0.857-1.895-0.857-2.891 0-1.125 0.318-2.2 0.952-3.228 0.641-1.029 1.489-1.871 2.491-2.486l0.033-0.019c1.015-0.61 2.062-0.916 3.143-0.916z"></path>
        </symbol>
        <symbol id="icon-Burger" viewBox="0 0 32 32">
            <path fill="none" stroke="#d41443" style="stroke: var(--color9, #d41443)" stroke-linejoin="miter" stroke-linecap="butt" stroke-miterlimit="4" stroke-width="1.6" d="M0 6.4h32M0 16h32M0 25.6h32"></path>
        </symbol>
        <symbol id="icon-close" viewBox="0 0 32 32">
            <path fill="none" stroke="#fff" style="stroke: var(--color7, #fff)" stroke-linejoin="miter" stroke-linecap="butt" stroke-miterlimit="4" stroke-width="2" d="M2.52 2l26.96 28M2 29.48l28-26.96"></path>
        </symbol>
        <symbol id="icon-face" viewBox="0 0 32 32">
            <path fill="#d41443" style="fill: var(--color9, #d41443)" d="M16 32c8.837 0 16-7.163 16-16s-7.163-16-16-16-16 7.163-16 16 7.163 16 16 16z"></path>
            <path fill="#fff" style="fill: var(--color7, #fff)" d="M20.446 15.981h-2.611v9.619h-3.955v-9.619h-1.88v-3.379h1.88v-2.187c0-1.564 0.739-4.014 3.991-4.014l2.929 0.012v3.281h-2.125c-0.348 0-0.839 0.176-0.839 0.922v1.989h2.955l-0.345 3.377z"></path>
        </symbol>
        <symbol id="icon-github" viewBox="0 0 32 32">
            <path fill="#d41443" style="fill: var(--color9, #d41443)" d="M32 16c0 8.837-7.163 16-16 16s-16-7.163-16-16c0-8.837 7.163-16 16-16s16 7.163 16 16z"></path>
            <path fill="#fff" style="fill: var(--color7, #fff)" d="M16 6.588c-5.17 0-9.412 4.242-9.412 9.412 0 4.411 3.096 8.419 7.206 9.412v-3.113c-0.408 0.088-0.781 0.091-1.196-0.031-0.556-0.164-1.008-0.535-1.344-1.099-0.214-0.36-0.593-0.753-0.988-0.724l-0.097-1.098c0.856-0.073 1.594 0.521 2.033 1.258 0.196 0.328 0.421 0.52 0.709 0.605 0.278 0.083 0.577 0.043 0.925-0.080 0.088-0.697 0.408-0.958 0.649-1.327-2.452-0.365-3.429-1.666-3.816-2.692-0.514-1.364-0.238-3.066 0.67-4.143 0.018-0.021 0.050-0.075 0.038-0.113-0.417-1.259 0.090-2.3 0.109-2.41 0.481 0.141 0.559-0.143 2.089 0.786l0.264 0.159c0.111 0.066 0.075 0.028 0.186 0.019 0.59-0.166 1.269-0.266 1.97-0.276l0.006-0c0.668 0.008 1.336 0.104 2.002 0.284l0.086 0.009c-0.008-0.002 0.024-0.006 0.075-0.037 1.911-1.158 1.842-0.779 2.355-0.946 0.019 0.111 0.519 1.169 0.106 2.411-0.056 0.171 1.656 1.739 0.708 4.256-0.388 1.026-1.365 2.328-3.816 2.693 0.314 0.48 0.692 0.734 0.69 1.722v3.886c4.109-0.993 7.206-5 7.206-9.412 0-5.17-4.242-9.412-9.412-9.412z"></path>
        </symbol>
        <symbol id="icon-Group-3" viewBox="0 0 32 32">
            <path fill="#fff" style="fill: var(--color7, #fff)" d="M19.692 16c0 2.039-1.653 3.692-3.692 3.692s-3.692-1.653-3.692-3.692c0-2.039 1.653-3.692 3.692-3.692s3.692 1.653 3.692 3.692z"></path>
            <path fill="#fff" style="fill: var(--color7, #fff)" d="M7.385 16c0 2.039-1.653 3.692-3.692 3.692s-3.692-1.653-3.692-3.692c0-2.039 1.653-3.692 3.692-3.692s3.692 1.653 3.692 3.692z"></path>
            <path fill="#fff" style="fill: var(--color7, #fff)" d="M32 16c0 2.039-1.653 3.692-3.692 3.692s-3.692-1.653-3.692-3.692c0-2.039 1.653-3.692 3.692-3.692s3.692 1.653 3.692 3.692z"></path>
        </symbol>
        <symbol id="icon-Group-8" viewBox="0 0 32 32">
            <path fill="#c7133e" style="fill: var(--color10, #c7133e)" d="M18 16c0 1.105-0.895 2-2 2s-2-0.895-2-2c0-1.105 0.895-2 2-2s2 0.895 2 2z"></path>
            <path fill="#c7133e" style="fill: var(--color10, #c7133e)" d="M4 16c0 1.105-0.895 2-2 2s-2-0.895-2-2c0-1.105 0.895-2 2-2s2 0.895 2 2z"></path>
            <path fill="#c7133e" style="fill: var(--color10, #c7133e)" d="M32 16c0 1.105-0.895 2-2 2s-2-0.895-2-2c0-1.105 0.895-2 2-2s2 0.895 2 2z"></path>
        </symbol>
        <symbol id="icon-house" viewBox="0 0 32 32">
            <path d="M31.599 15.625c0.249-0.271 0.401-0.633 0.401-1.031 0-0.459-0.203-0.871-0.524-1.151l-0.002-0.002-14.301-12.514c-0.649-0.568-1.69-0.556-2.325 0.027l-14.35 13.154c-0.635 0.583-0.667 1.559-0.069 2.18l0.36 0.375c0.597 0.621 1.562 0.695 2.154 0.165l1.072-0.96v14.060c0 0.863 0.699 1.561 1.561 1.561h5.594c0.862 0 1.561-0.698 1.561-1.561v-9.837h7.135v9.837c-0.012 0.862 0.604 1.56 1.466 1.56h5.928c0.862 0 1.561-0.698 1.561-1.561v-13.862s0.296 0.26 0.662 0.581c0.365 0.321 1.131 0.064 1.711-0.575l0.407-0.447z"></path>
        </symbol>
        <symbol id="icon-icecream_logo" viewBox="0 0 32 32">
            <path d="M10.933 0.581c0 0.116-0.145 0.145-0.648 0.155-0.88 0.010-1.122 0.087-1.19 0.377-0.048 0.213-0.116 0.252-0.629 0.29-0.551 0.048-0.58 0.068-0.61 0.31-0.029 0.203-0.087 0.271-0.242 0.271-0.435 0-0.89 0.194-0.987 0.406-0.058 0.145-0.194 0.232-0.368 0.252-0.213 0.029-0.281 0.097-0.329 0.31-0.039 0.213-0.116 0.29-0.31 0.31s-0.261 0.087-0.281 0.29c-0.029 0.203-0.087 0.271-0.252 0.271-0.271 0-0.445 0.174-0.445 0.455 0 0.184-0.048 0.223-0.29 0.223-0.261 0-0.29 0.029-0.29 0.29 0 0.242-0.039 0.29-0.223 0.29-0.281 0-0.455 0.174-0.455 0.445 0 0.164-0.068 0.223-0.261 0.252-0.213 0.019-0.281 0.087-0.3 0.281s-0.097 0.271-0.3 0.31c-0.232 0.048-0.281 0.116-0.339 0.464-0.039 0.271-0.155 0.484-0.348 0.648-0.194 0.174-0.29 0.348-0.29 0.522 0 0.203-0.048 0.271-0.184 0.271-0.252 0-0.339 0.145-0.397 0.726-0.039 0.387-0.097 0.503-0.271 0.581-0.261 0.116-0.406 0.571-0.406 1.325 0 0.435-0.029 0.561-0.145 0.561-0.126 0-0.145 0.571-0.145 4.547s0.019 4.547 0.145 4.547c0.116 0 0.145 0.126 0.145 0.551 0 0.764 0.145 1.219 0.406 1.335 0.184 0.077 0.232 0.184 0.252 0.581 0.039 0.532 0.145 0.726 0.416 0.726 0.135 0 0.184 0.068 0.184 0.271 0 0.174 0.097 0.348 0.29 0.522 0.193 0.164 0.31 0.377 0.348 0.648 0.058 0.348 0.106 0.416 0.339 0.464 0.203 0.039 0.281 0.116 0.3 0.31s0.087 0.261 0.3 0.281c0.193 0.029 0.261 0.087 0.261 0.252 0 0.271 0.174 0.445 0.455 0.445 0.184 0 0.223 0.048 0.223 0.29 0 0.261 0.029 0.29 0.29 0.29 0.242 0 0.29 0.039 0.29 0.223 0 0.281 0.174 0.455 0.445 0.455 0.164 0 0.223 0.068 0.252 0.261 0.019 0.213 0.087 0.281 0.281 0.3s0.271 0.097 0.31 0.3c0.048 0.213 0.126 0.29 0.358 0.329 0.184 0.039 0.329 0.145 0.377 0.29 0.087 0.232 0.426 0.358 0.938 0.358 0.164 0 0.223 0.058 0.252 0.261 0.029 0.242 0.077 0.271 0.416 0.3 0.658 0.039 0.822 0.106 0.822 0.31 0 0.252 0.348 0.387 0.948 0.387h0.455l0.029-0.851c0.029-1.151-0.039-1.287-0.929-1.722-0.706-0.348-1.48-0.861-1.558-1.035-0.019-0.048-0.174-0.232-0.358-0.406-0.184-0.184-0.329-0.377-0.329-0.435s-0.106-0.261-0.232-0.464c-0.348-0.532-0.464-1.374-0.435-3.396 0.019-1.751 0.010-1.829-0.203-2.109-0.116-0.164-0.319-0.358-0.445-0.426-0.639-0.339-1.2-1.403-1.2-2.254 0-0.822 0.455-1.693 1.171-2.264 0.406-0.329 0.6-0.803 0.522-1.267-0.097-0.59 0.29-2.699 0.639-3.425 0.155-0.329 0.281-0.648 0.281-0.706s0.135-0.271 0.29-0.474c0.164-0.203 0.29-0.406 0.29-0.464 0-0.242 1.877-2.206 2.332-2.438 0.155-0.087 0.281-0.184 0.281-0.223 0-0.097 1.471-0.842 2.341-1.171 1.045-0.406 2.506-0.551 3.947-0.406 0.745 0.077 1.296 0.203 1.819 0.406 0.871 0.329 2.341 1.074 2.341 1.171 0 0.039 0.126 0.135 0.281 0.223 0.155 0.077 0.6 0.464 0.997 0.871 0.958 0.977 1.113 1.161 1.296 1.529 0.087 0.164 0.232 0.397 0.329 0.503 0.155 0.174 0.513 0.938 0.822 1.79 0.184 0.513 0.445 2.486 0.377 2.864-0.077 0.406 0.145 0.909 0.532 1.219 0.716 0.571 1.171 1.442 1.171 2.264 0 0.851-0.561 1.916-1.2 2.254-0.126 0.068-0.319 0.252-0.435 0.406-0.194 0.261-0.203 0.406-0.232 2.525-0.019 2.409 0 2.274-0.581 3.338-0.368 0.668-1.345 1.529-2.245 1.974-0.445 0.213-0.842 0.464-0.88 0.551-0.048 0.087-0.087 0.59-0.087 1.103 0 0.88 0.010 0.948 0.194 0.948 0.416 0 0.629-0.116 0.629-0.348s-0.029-0.223 1.064-0.358c0.077-0.010 0.155-0.135 0.174-0.29 0.029-0.242 0.068-0.261 0.464-0.261 0.522 0 0.813-0.135 0.813-0.377 0-0.126 0.097-0.194 0.29-0.232 0.242-0.058 0.29-0.106 0.29-0.358 0-0.261 0.029-0.29 0.29-0.29 0.397 0 0.832-0.232 0.9-0.474 0.029-0.116 0.145-0.203 0.319-0.223 0.223-0.019 0.29-0.087 0.31-0.29s0.097-0.29 0.29-0.339c0.31-0.068 0.406-0.194 0.406-0.493 0-0.145 0.058-0.213 0.194-0.213 0.194 0 0.484-0.522 0.484-0.88 0-0.116 0.087-0.184 0.271-0.203 0.213-0.019 0.271-0.077 0.29-0.339 0.029-0.252 0.077-0.31 0.29-0.339 0.242-0.029 0.261-0.058 0.29-0.571 0.029-0.522 0.039-0.551 0.339-0.639 0.3-0.077 0.31-0.106 0.339-0.629s0.048-0.551 0.31-0.61c0.281-0.058 0.29-0.077 0.29-0.687 0-0.571 0.019-0.629 0.232-0.706 0.329-0.135 0.377-0.31 0.426-1.732 0.039-1.229 0.048-1.296 0.261-1.374 0.281-0.106 0.339-0.464 0.339-2.032s-0.058-1.925-0.339-2.032c-0.213-0.077-0.223-0.145-0.261-1.374-0.048-1.422-0.097-1.596-0.426-1.732-0.213-0.077-0.232-0.135-0.232-0.706 0-0.61-0.010-0.629-0.29-0.687-0.261-0.058-0.281-0.087-0.31-0.61s-0.039-0.551-0.339-0.629c-0.3-0.087-0.31-0.116-0.339-0.639-0.029-0.513-0.048-0.542-0.29-0.571-0.213-0.029-0.261-0.087-0.29-0.339-0.019-0.261-0.077-0.319-0.29-0.339-0.184-0.019-0.271-0.087-0.271-0.203 0-0.358-0.29-0.88-0.484-0.88-0.135 0-0.194-0.068-0.194-0.223 0-0.29-0.097-0.416-0.406-0.484-0.194-0.048-0.271-0.135-0.29-0.339s-0.087-0.271-0.3-0.29c-0.174-0.019-0.31-0.116-0.377-0.261-0.116-0.261-0.455-0.435-0.851-0.435-0.252 0-0.29-0.039-0.29-0.281s-0.048-0.3-0.29-0.348c-0.194-0.039-0.29-0.126-0.29-0.242 0-0.252-0.29-0.387-0.813-0.387-0.397 0-0.435-0.019-0.464-0.271s-0.058-0.261-0.629-0.29c-0.571-0.029-0.61-0.039-0.61-0.261 0-0.329-0.261-0.435-1.103-0.435-0.59 0-0.735-0.029-0.735-0.145 0-0.126-0.581-0.145-4.644-0.145s-4.644 0.019-4.644 0.145z"></path>
            <path d="M14.561 7.459c-0.668 0.174-2.012 0.706-2.419 0.977-1.403 0.9-1.49 0.987-1.432 1.364 0.048 0.281 0.126 0.358 0.503 0.522 0.242 0.106 0.513 0.252 0.59 0.319 0.155 0.135 1.471 0.648 2.177 0.842 0.503 0.145 3.27 0.145 3.773 0 0.706-0.194 2.022-0.706 2.177-0.842 0.077-0.068 0.348-0.213 0.59-0.319 0.377-0.164 0.455-0.242 0.503-0.522 0.058-0.339 0.029-0.377-0.629-0.832-0.832-0.581-1.355-0.861-2.158-1.161-0.813-0.31-0.968-0.339-2.177-0.368-0.716-0.010-1.393 0-1.5 0.019z"></path>
            <path d="M9.269 11.852c-0.271 0.203-0.416 0.658-0.561 1.693-0.155 1.103-0.126 1.577 0.087 1.693 0.126 0.068 2.515 0.097 7.072 0.097s6.947-0.029 7.072-0.097c0.232-0.126 0.242-0.726 0.048-1.954-0.164-0.997-0.31-1.325-0.658-1.519-0.252-0.145-0.281-0.135-0.581 0.155-0.174 0.164-0.503 0.387-0.726 0.503-0.232 0.116-0.59 0.29-0.803 0.397-0.203 0.106-0.426 0.194-0.484 0.194s-0.271 0.087-0.484 0.194c-0.919 0.464-3.812 0.658-5.486 0.358-0.784-0.145-1.829-0.493-2.399-0.813-0.155-0.087-0.484-0.252-0.726-0.377-0.242-0.116-0.542-0.329-0.668-0.464-0.281-0.3-0.387-0.31-0.706-0.058zM7.43 17.521c-0.339 0.184-0.561 0.6-0.464 0.871 0.048 0.116 0.203 0.3 0.348 0.416 0.252 0.203 0.3 0.203 5.089 0.203 5.428 0 5.331-0.010 5.457 0.648 0.039 0.194 0.039 0.919 0.010 1.606-0.058 1.122-0.039 1.287 0.126 1.616 0.242 0.474 0.319 0.522 0.735 0.435 0.493-0.087 0.561-0.329 0.619-2.322 0.048-1.732 0.048-1.732 0.29-1.858 0.174-0.087 0.851-0.126 2.38-0.126 2.041 0 2.158-0.010 2.399-0.203 0.368-0.29 0.455-0.561 0.29-0.88-0.3-0.581 0.058-0.561-8.862-0.561-7.024 0.010-8.195 0.029-8.417 0.155z"></path>
            <path d="M8.872 21.217c-0.135 0.155-0.164 0.416-0.164 1.625 0 1.945 0.097 2.448 0.551 3.057 0.271 0.348 0.542 0.571 1.016 0.813l0.658 0.329h9.868l0.658-0.329c0.851-0.435 1.345-1.055 1.471-1.867 0.058-0.31 0.097-1.219 0.097-2.022 0-1.296-0.019-1.48-0.174-1.616-0.203-0.194-0.774-0.213-1.122-0.058-0.261 0.126-0.329 0.406-0.329 1.393-0.010 1.093-0.416 1.809-1.403 2.457-0.919 0.619-1.954 0.61-2.864-0.010-0.6-0.416-0.88-0.764-1.19-1.471-0.223-0.493-0.261-0.735-0.271-1.432 0-0.735-0.029-0.861-0.184-0.948-0.126-0.058-1.354-0.097-3.328-0.097-2.912 0-3.144 0.010-3.29 0.174zM12.732 29.218c-0.223 0.116-0.232 0.203-0.048 1.567l0.106 0.803h6.269l0.010-0.513c0-0.271 0.039-0.764 0.087-1.084 0.048-0.435 0.039-0.619-0.058-0.716-0.097-0.106-0.697-0.135-3.144-0.145-1.935-0.010-3.096 0.029-3.222 0.087z"></path>
        </symbol>
        <symbol id="icon-right-arrow" viewBox="0 0 32 32">
            <path d="M24.889 14.751l-14.24-14.24c-0.329-0.33-0.769-0.511-1.238-0.511s-0.908 0.182-1.238 0.511l-1.049 1.048c-0.682 0.683-0.682 1.794 0 2.476l11.958 11.958-11.971 11.971c-0.329 0.33-0.511 0.769-0.511 1.238s0.182 0.908 0.511 1.238l1.049 1.048c0.33 0.33 0.769 0.511 1.238 0.511s0.908-0.182 1.238-0.511l14.254-14.253c0.33-0.331 0.511-0.772 0.51-1.242 0.001-0.471-0.18-0.912-0.51-1.243z"></path>
        </symbol>
        <symbol id="icon-right-arrow-2" viewBox="0 0 32 32">
            <path d="M31.489 14.757l-11.556-11.557c-0.33-0.33-0.77-0.511-1.238-0.511s-0.909 0.181-1.239 0.511l-1.049 1.050c-0.33 0.329-0.511 0.769-0.511 1.238s0.182 0.924 0.511 1.253l6.742 6.757h-21.419c-0.966 0-1.729 0.756-1.729 1.722v1.484c0 0.966 0.763 1.798 1.729 1.798h21.495l-6.818 6.794c-0.33 0.33-0.511 0.758-0.511 1.227s0.182 0.903 0.511 1.232l1.049 1.046c0.33 0.33 0.769 0.51 1.239 0.51s0.908-0.182 1.238-0.512l11.556-11.556c0.331-0.331 0.513-0.773 0.511-1.242 0.001-0.471-0.181-0.913-0.511-1.244z"></path>
        </symbol>
        <symbol id="icon-telega" viewBox="0 0 32 32">
            <path  d="M31.258 16c0 8.569-6.946 15.515-15.515 15.515s-15.515-6.946-15.515-15.515c0-8.569 6.946-15.515 15.515-15.515s15.515 6.946 15.515 15.515z"></path>
            <path  d="M12.705 18.303l-0.307 4.044c0.44 0 0.631-0.177 0.86-0.389l2.065-1.842 4.281 2.926c0.785 0.407 1.338 0.193 1.551-0.674l2.809-12.289h0.001c0.249-1.084-0.42-1.507-1.185-1.241l-16.516 5.902c-1.127 0.407-1.11 0.995-0.192 1.261l4.223 1.226 9.807-5.728c0.462-0.285 0.882-0.127 0.536 0.158l-7.933 6.648z"></path>
        </symbol>
        <symbol id="icon-arrow" viewBox="0 0 8 8">
            <path d="M24.889 14.751l-14.24-14.24c-0.329-0.33-0.769-0.511-1.238-0.511s-0.908 0.182-1.238 0.511l-1.049 1.048c-0.682 0.683-0.682 1.794 0 2.476l11.958 11.958-11.971 11.971c-0.329 0.33-0.511 0.769-0.511 1.238s0.182 0.908 0.511 1.238l1.049 1.048c0.33 0.33 0.769 0.511 1.238 0.511s0.908-0.182 1.238-0.511l14.254-14.253c0.33-0.331 0.511-0.772 0.51-1.242 0.001-0.471-0.18-0.912-0.51-1.243z"></path>
        </symbol>
    </defs>
</svg>